# xmcd
#
# Track frame offsets:
#	150
#	16485
#	26966
#	41583
#	60880
#	76331
#	94157
#	113000
#	130990
#	151787
#	167120
#	182728
#
# Disc length: 2628 seconds
#
# Revision: 1
# Processed by: cddbd v1.5.2PL0 Copyright (c) Steve Scherf et al.
# Submitted via: audiograbber 1.83.01
#
DISCID=8f0a420c
DTITLE=Madison Violet - No Fool For Trying
DYEAR=2009
DGENRE=
TTITLE0=The Ransom
TTITLE1=Lauralee
TTITLE2=No Fool For Trying (Reynolds Remix)
TTITLE3=Small Of My Heart
TTITLE4=Baby In The Black and White
TTITLE5=Hallways Of The Sage
TTITLE6=Crying
TTITLE7=The Woodshop
TTITLE8=Darlin'
TTITLE9=Best Part Of The Love
TTITLE10=Time And Tide
TTITLE11=No Fool For Trying
EXTD=
EXTT0=
EXTT1=
EXTT2=
EXTT3=
EXTT4=
EXTT5=
EXTT6=
EXTT7=
EXTT8=
EXTT9=
EXTT10=
EXTT11=
PLAYORDER=
